<svg xmlns="http://www.w3.org/2000/svg" viewBox="0 0 1920 541.530543"><path d="M221.934 278.1c-7.5-68.298 64.056-123.088 159.84-122.329s179.563 56.69 187.063 124.9c7.492 68.343-64.01 123.043-159.821 122.283-95.785-.67-179.562-56.636-187.082-124.853m364.717 21.17c-8.65-84.674-105.048-154.03-215.299-154.953-110.306-.887-192.636 67.023-183.978 151.66 8.65 84.666 105.048 154.058 215.309 154.981 110.268.87 192.663-67.004 183.968-151.687" style="fill:#fbb584"/><path d="M420.207 452.624c-54.302 56.817-141.491 61.485-194.698 10.53-53.217-50.918-52.312-138.207 2.035-194.933 54.32-56.736 141.519-61.44 194.69-10.531 53.19 50.955 52.303 138.244-2.027 194.934M218.995 266.429c-63.133 65.92-64.147 167.394-2.316 226.619 61.829 59.17 163.186 53.705 226.283-12.25 63.159-65.938 64.199-167.413 2.334-226.618-61.82-59.18-163.16-53.715-226.301 12.25" style="fill:#f89b6c"/><path d="M224.767 54.025c112.965-42.305 224.645.507 249.47 95.63 24.845 95.188-46.601 206.65-159.548 248.938-112.966 42.378-224.673-.47-249.482-95.612-24.862-95.114 46.622-206.578 159.56-248.956M119.863 90.413C2.672 183.185-27.147 317.655 53.211 390.668c80.386 73.066 240.542 57.034 357.75-35.737 117.199-92.753 147.037-227.188 66.643-300.236-80.431-73.049-240.57-57.09-357.741 35.718" style="fill:#f37321"/><path d="M856.416 166.22v210.058h-32.905v-110.79h-124.5v110.79H666.1V166.221h32.91v70.475h124.5V166.22zM935.395 376.278q-23.039-.001-36.47-12.888c-9.147-8.59-13.711-19.65-13.711-33.181v-11.242c0-13.715 4.564-24.862 13.711-33.457q13.431-13.164 36.47-13.164h85.832v-.823q0-25.228-27.694-25.228h-95.431v-27.97h94.884c19.741 0 34.823 5.03 45.246 15.082 10.598 9.69 15.905 23.767 15.905 42.233v55.668q0 21.386-14.535 33.729c-8.776 7.49-21.117 11.241-37.022 11.241zm60.056-75.961h-52.104c-16.823 0-25.229 7.133-25.229 21.391v5.212c0 14.078 8.406 21.112 25.23 21.112h52.103c17.18 0 25.776-7.034 25.776-21.112v-5.212c0-14.258-8.595-21.391-25.776-21.391M1150.383 218.325h32.361c20.475 0 36.565 5.944 48.264 17.823 11.698 11.888 17.551 28.426 17.551 49.634v90.496h-32.904v-88.85c0-13.164-2.566-22.763-7.682-28.793-6.401-7.857-15.629-11.793-27.694-11.793h-27.974c-11.703 0-20.84 3.936-27.423 11.793q-7.13 9.047-7.129 28.793v88.85h-32.905v-90.496c0-21.208 5.845-37.746 17.547-49.634 11.699-11.879 27.698-17.823 47.988-17.823M1400.207 355.166q-17.548 21.11-43.6 21.112h-20.293q-27.427 0-43.604-17.276-15.359-16.178-15.358-45.797v-94.88h32.635v95.156q.001 17.274 7.405 25.228c5.663 6.035 13.069 9.047 22.211 9.047h14.258c9.329 0 16.82-3.012 22.488-9.047 5.116-5.302 7.681-13.712 7.681-25.228v-95.156h32.358v95.156q.001 17.274 7.405 25.228c5.664 6.035 13.069 9.047 22.21 9.047h14.26c9.323 0 16.819-3.012 22.487-9.047 5.116-5.302 7.68-13.712 7.68-25.228v-95.156h32.635v94.88c0 19.745-5.306 35.013-15.905 45.797-10.793 11.517-25.415 17.276-43.88 17.276h-20.017c-17.004 0-31.358-7.04-43.056-21.112M1619.592 246.842c-11.703 0-20.842 3.936-27.423 11.793q-7.131 9.047-7.13 28.793v88.85h-32.905V165.67h32.906v62.254q14.256-9.6 32.633-9.599h32.358c20.474 0 36.565 5.944 48.263 17.823 11.699 11.888 17.552 28.426 17.552 49.634v90.496h-32.906v-88.85c0-13.164-2.564-22.763-7.681-28.793-6.4-7.857-15.63-11.793-27.693-11.793zM1793.178 376.278c-15.357 0-27.517-4.298-36.47-12.888-9.147-8.59-13.71-19.65-13.71-33.181v-11.242c0-13.715 4.563-24.862 13.71-33.457 8.953-8.776 21.113-13.164 36.47-13.164h85.832v-.823q-.002-25.228-27.693-25.228h-95.432v-27.97h94.884c19.74 0 34.823 5.03 45.246 15.082 10.598 9.69 15.905 23.767 15.905 42.233v55.668q0 21.386-14.535 33.729c-8.776 7.49-21.116 11.241-37.022 11.241zm60.056-75.961h-52.103c-16.828 0-25.23 7.133-25.23 21.391v5.212c0 14.078 8.402 21.112 25.23 21.112h52.103c17.181 0 25.776-7.034 25.776-21.112v-5.212c0-14.258-8.595-21.391-25.776-21.391"/></svg>