<svg version="1.1" id="Layer_1" xmlns="http://www.w3.org/2000/svg" xmlns:xlink="http://www.w3.org/1999/xlink" x="0px" y="0px"
	 width="100%" viewBox="0 0 400 400" enable-background="new 0 0 400 400" xml:space="preserve">
<path fill="#FFFFFF" opacity="1.000000" stroke="none" 
	d="
M401.000000,148.000000 
	C401.000000,232.666672 401.000000,316.833344 401.000000,401.000000 
	C267.666656,401.000000 134.333328,401.000000 1.000000,401.000000 
	C1.000000,267.666656 1.000000,134.333328 1.000000,1.000000 
	C134.333328,1.000000 267.666656,1.000000 401.000000,1.000000 
	C401.000000,49.833332 401.000000,98.666664 401.000000,148.000000 
M336.951080,136.085968 
	C336.911713,132.057678 336.872314,128.029404 336.970917,123.080788 
	C336.920685,118.719406 336.870453,114.358032 336.952637,109.229591 
	C336.909454,108.455765 336.866302,107.681946 336.960632,105.991302 
	C336.960632,84.732162 336.960632,63.473022 336.960632,42.283890 
	C245.680481,42.283890 154.951859,42.283890 64.287384,42.283890 
	C64.287384,147.979782 64.287384,253.373764 64.287384,358.723511 
	C155.305618,358.723511 246.034256,358.723511 337.000854,358.723511 
	C337.000854,356.791290 337.000885,355.146240 337.000854,353.501190 
	C336.999908,286.676392 337.002472,219.851608 336.990448,153.026810 
	C336.989594,148.365860 336.880432,143.704941 336.930267,138.365601 
	C336.886261,137.910812 336.842285,137.456009 336.951080,136.085968 
z"/>
<path fill="#000F30" opacity="1.000000" stroke="none" 
	d="
M336.821655,139.044006 
	C336.880432,143.704941 336.989594,148.365860 336.990448,153.026810 
	C337.002472,219.851608 336.999908,286.676392 337.000854,353.501190 
	C337.000885,355.146240 337.000854,356.791290 337.000854,358.723511 
	C246.034256,358.723511 155.305618,358.723511 64.287384,358.723511 
	C64.287384,253.373764 64.287384,147.979782 64.287384,42.283890 
	C154.951859,42.283890 245.680481,42.283890 336.960632,42.283890 
	C336.960632,63.473022 336.960632,84.732162 336.587036,106.173508 
	C335.713165,100.237076 335.212830,94.118431 334.639984,87.653671 
	C333.183472,86.562500 331.875702,85.420860 330.402924,85.137932 
	C321.986053,83.520950 313.529907,82.108307 304.789307,80.407478 
	C297.991821,78.803711 291.492096,77.418724 284.670441,75.842850 
	C279.573730,74.399544 274.798950,73.147133 269.765106,71.658997 
	C266.987213,70.692116 264.468353,69.960960 261.591370,69.086380 
	C257.826691,67.954643 254.420105,66.966331 250.761139,65.728043 
	C246.677826,64.068146 242.846878,62.658234 238.715973,61.097511 
	C237.392426,60.577225 236.368866,60.207745 235.102356,59.577560 
	C231.881958,58.003834 228.904526,56.690819 225.621445,55.208794 
	C223.629074,54.318630 221.942352,53.597481 220.055328,52.595779 
	C218.571274,51.875507 217.287491,51.435791 215.802979,50.703079 
	C212.782516,49.255630 209.962784,48.101177 207.031311,46.611668 
	C203.589813,42.888210 200.081131,42.156403 195.980392,45.127090 
	C193.464188,46.949898 190.658188,48.372715 187.612366,49.975586 
	C178.127518,54.176052 169.012634,58.376083 159.533356,62.707092 
	C143.778198,67.637131 128.387436,72.436195 112.605728,77.221115 
	C99.343719,79.647827 86.475456,82.103706 73.599335,84.517693 
	C70.806007,85.041374 68.106003,85.113045 67.710953,89.134521 
	C65.000107,116.730225 64.970818,144.337448 69.362656,171.694122 
	C71.919807,187.622620 76.516228,203.223740 80.216042,219.338196 
	C80.738617,221.095428 81.168495,222.517548 81.753075,223.872955 
	C87.126068,236.330750 92.525864,248.776962 97.954453,261.574554 
	C102.096344,268.615753 106.201622,275.308990 110.420166,282.302155 
	C113.317101,286.163177 116.100769,289.724274 118.981895,293.596100 
	C121.019951,296.040497 122.960556,298.174133 125.049850,300.587708 
	C126.748192,302.387665 128.297836,303.907684 129.964325,305.726349 
	C132.378769,308.372742 134.676376,310.720490 137.121552,313.365601 
	C139.847733,315.771423 142.426331,317.879822 145.140076,320.293610 
	C147.844086,322.741852 150.412949,324.884735 153.160522,327.306946 
	C155.880676,329.417450 158.422104,331.248657 161.145203,333.352417 
	C163.205490,334.758179 165.084106,335.891388 167.148163,337.302216 
	C169.889252,339.321075 172.444901,341.062317 175.262451,343.026001 
	C177.663651,344.550262 179.802948,345.852142 182.132614,347.419800 
	C184.214005,348.765991 186.105011,349.846436 188.265747,351.139099 
	C190.972687,352.690704 193.409927,354.030090 196.087997,355.614716 
	C199.176712,358.057373 202.050583,358.982880 205.350769,355.971008 
	C209.136780,353.954346 212.575623,352.003967 216.354324,349.974426 
	C220.119583,347.595886 223.544968,345.296539 227.307678,342.921631 
	C230.762543,340.564941 233.880096,338.283783 237.332520,335.897705 
	C242.808350,331.542938 247.949310,327.293121 253.437256,323.005188 
	C257.889618,319.397797 261.994965,315.828583 266.419952,312.110382 
	C269.734558,308.733002 272.719238,305.495056 275.726318,302.277985 
	C287.527893,289.652344 297.501587,275.751709 305.381958,259.973572 
	C311.707733,244.775818 318.518616,230.054123 323.577484,214.753174 
	C327.513153,202.849365 329.266083,190.223877 332.199524,177.595978 
	C332.993469,171.653519 333.577026,166.034241 334.336182,159.960464 
	C334.696350,156.702286 334.880920,153.898605 335.265686,150.739670 
	C335.917786,146.604294 336.369720,142.824142 336.821655,139.044006 
z"/>
<path fill="#9344FB" opacity="1.000000" stroke="none" 
	d="
M334.712524,87.999786 
	C335.212830,94.118431 335.713165,100.237076 336.518311,106.631920 
	C336.866302,107.681946 336.909454,108.455765 336.540802,109.535973 
	C334.008331,106.019600 331.188324,106.551079 328.108185,108.530899 
	C326.777954,109.385933 325.407776,110.178825 323.961517,110.580292 
	C323.537964,105.878578 323.208649,101.596527 322.881165,97.338348 
	C321.150848,96.802864 319.574677,96.315086 318.170593,95.546143 
	C322.260895,89.376953 327.181885,85.748344 334.712524,87.999786 
z"/>
<path fill="#9A3BFF" opacity="1.000000" stroke="none" 
	d="
M324.055756,110.999947 
	C325.407776,110.178825 326.777954,109.385933 328.108185,108.530899 
	C331.188324,106.551079 334.008331,106.019600 336.474609,109.919502 
	C336.870453,114.358032 336.920685,118.719406 336.529053,123.487114 
	C331.094055,120.989899 328.027771,125.475822 324.121063,126.534019 
	C324.054565,121.047935 324.055176,116.023941 324.055756,110.999947 
z"/>
<path fill="#A132FF" opacity="1.000000" stroke="none" 
	d="
M324.188171,126.996109 
	C328.027771,125.475822 331.094055,120.989899 336.460052,123.947281 
	C336.872314,128.029404 336.911713,132.057678 336.452393,136.544006 
	C331.976166,137.997574 327.998688,138.993118 323.941833,139.532196 
	C323.971069,135.049194 324.079620,131.022659 324.188171,126.996109 
z"/>
<path fill="#A529F9" opacity="1.000000" stroke="none" 
	d="
M324.021179,139.988647 
	C327.998688,138.993118 331.976166,137.997574 336.375977,137.001617 
	C336.842285,137.456009 336.886261,137.910812 336.875977,138.704803 
	C336.369720,142.824142 335.917786,146.604294 335.202820,150.376984 
	C333.533173,149.799332 332.046082,148.616821 330.737000,148.788895 
	C328.164642,149.126968 325.691315,150.218231 323.125031,150.559021 
	C323.389099,146.742996 323.705139,143.365829 324.021179,139.988647 
z"/>
<path fill="#00E5FC" opacity="1.000000" stroke="none" 
	d="
M80.195099,218.972153 
	C76.516228,203.223740 71.919807,187.622620 69.362656,171.694122 
	C64.970818,144.337448 65.000107,116.730225 67.710953,89.134521 
	C68.106003,85.113045 70.806007,85.041374 73.599335,84.517693 
	C86.475456,82.103706 99.343719,79.647827 112.595619,77.599655 
	C112.322205,82.023956 111.667984,86.055565 110.733154,90.292801 
	C109.099228,90.714172 107.745895,90.929916 106.142143,91.139252 
	C105.542099,91.184761 105.264618,91.354523 104.672134,91.772675 
	C97.475304,93.303909 90.662392,94.689201 83.857651,96.113503 
	C81.396027,96.628738 79.158722,97.098083 79.153618,100.602013 
	C79.134529,113.708115 78.103592,126.860748 78.898529,139.907791 
	C79.874352,155.923874 82.299866,171.851624 83.973770,188.102814 
	C84.134933,189.261337 84.421013,190.134598 84.839218,191.377991 
	C85.367516,194.005371 85.763695,196.262634 86.167213,198.798111 
	C86.378914,199.375046 86.583282,199.673767 86.895111,200.296295 
	C87.047768,201.070541 87.092972,201.521011 86.738022,202.054199 
	C85.891953,204.103760 85.673897,206.159058 84.952019,208.018784 
	C83.512733,211.726715 81.796776,215.327255 80.195099,218.972153 
z"/>
<path fill="#B812FB" opacity="1.000000" stroke="none" 
	d="
M266.100311,312.259399 
	C261.994965,315.828583 257.889618,319.397797 253.105209,322.951447 
	C252.403519,321.712891 251.952316,320.279480 252.431732,319.302948 
	C254.617691,314.850189 257.173065,310.578400 259.346130,306.119934 
	C259.922150,304.938110 259.611389,303.324036 259.889771,301.616882 
	C271.661560,290.086151 281.844025,277.621887 289.539429,263.485229 
	C296.145477,251.349792 301.424286,238.491837 307.460999,225.813110 
	C307.826691,225.429642 307.912720,225.152679 307.908447,224.895477 
	C307.926819,224.949020 307.832001,224.887192 308.191528,224.880005 
	C311.457611,223.592163 310.829742,221.543671 309.735138,219.059448 
	C310.217560,217.482605 310.705933,216.241409 311.508057,214.959900 
	C313.513733,214.099106 315.170349,213.275253 312.081116,211.624649 
	C312.777710,208.831314 313.491455,206.416550 314.545746,203.924469 
	C315.905670,202.012817 316.952576,200.193146 317.939545,198.341553 
	C321.625000,191.427414 325.255096,184.482880 329.069122,177.640701 
	C329.260376,177.297577 330.980743,177.806778 331.989105,177.919128 
	C329.266083,190.223877 327.513153,202.849365 323.577484,214.753174 
	C318.518616,230.054123 311.707733,244.775818 305.166077,259.678589 
	C303.445404,259.628967 301.814575,259.146637 301.044556,259.754608 
	C297.945679,262.201385 294.807983,264.722870 292.246521,267.700134 
	C287.218292,273.544617 282.283569,279.512238 277.828064,285.796082 
	C272.170044,293.775787 267.639709,302.390015 266.100311,312.259399 
z"/>
<path fill="#00D9FB" opacity="1.000000" stroke="none" 
	d="
M111.013763,90.087181 
	C111.667984,86.055565 112.322205,82.023956 112.986542,77.613800 
	C128.387436,72.436195 143.778198,67.637131 159.556274,63.114044 
	C158.830170,65.925720 157.677887,68.445259 156.615097,71.001999 
	C155.689667,73.228264 154.865295,75.496536 153.658508,77.907166 
	C139.218399,82.074455 125.116081,86.080818 111.013763,90.087181 
z"/>
<path fill="#00DBFB" opacity="1.000000" stroke="none" 
	d="
M80.216049,219.338196 
	C81.796776,215.327255 83.512733,211.726715 84.952019,208.018784 
	C85.673897,206.159058 85.891953,204.103760 86.985069,202.326111 
	C87.850143,203.479630 87.976334,204.475906 88.299721,205.403427 
	C92.787933,218.276611 97.303162,231.140366 101.450653,244.088196 
	C100.402916,245.421173 99.282494,246.615326 99.109016,247.934036 
	C98.529297,252.340851 98.288490,256.792236 97.917854,261.226562 
	C92.525864,248.776962 87.126068,236.330750 81.753075,223.872955 
	C81.168495,222.517548 80.738617,221.095428 80.216049,219.338196 
z"/>
<path fill="#BE0DFC" opacity="1.000000" stroke="none" 
	d="
M266.419952,312.110382 
	C267.639709,302.390015 272.170044,293.775787 277.828064,285.796082 
	C282.283569,279.512238 287.218292,273.544617 292.246521,267.700134 
	C294.807983,264.722870 297.945679,262.201385 301.044556,259.754608 
	C301.814575,259.146637 303.445404,259.628967 304.896484,259.905090 
	C297.501587,275.751709 287.527893,289.652344 275.726318,302.277985 
	C272.719238,305.495056 269.734558,308.733002 266.419952,312.110382 
z"/>
<path fill="#01D0FC" opacity="1.000000" stroke="none" 
	d="
M97.954453,261.574554 
	C98.288490,256.792236 98.529297,252.340851 99.109016,247.934036 
	C99.282494,246.615326 100.402916,245.421173 101.665726,244.386566 
	C103.443535,249.352264 106.690094,250.204010 111.156906,249.958115 
	C117.077721,249.632202 123.036713,249.999725 128.683319,250.348328 
	C126.250473,250.752365 124.100418,251.087646 121.979652,250.954926 
	C118.455833,250.734406 117.344032,252.367554 117.605057,255.422028 
	C119.579536,255.942200 121.285507,256.391632 122.534927,256.912476 
	C119.967087,256.993408 117.843056,256.862579 115.748154,257.052734 
	C113.731110,257.235748 111.744179,257.750580 109.817841,258.469482 
	C112.650215,263.531708 115.408768,268.244171 117.798660,273.001953 
	C116.222191,274.788544 115.089546,276.588806 113.782852,278.252380 
	C112.733589,279.588226 111.473457,280.758453 110.306900,282.002197 
	C106.201622,275.308990 102.096344,268.615753 97.954453,261.574554 
z"/>
<path fill="#01CEFA" opacity="1.000000" stroke="none" 
	d="
M153.996277,77.746246 
	C154.865295,75.496536 155.689667,73.228264 156.615097,71.001999 
	C157.677887,68.445259 158.830170,65.925720 159.920654,62.983070 
	C169.012634,58.376083 178.127518,54.176052 187.881897,50.206581 
	C187.582458,52.885315 186.676575,55.346806 185.696136,57.778244 
	C184.495239,60.756424 183.231949,63.709442 181.761292,66.819748 
	C181.343094,66.976196 181.159225,66.986244 180.833344,67.017685 
	C180.503708,67.088181 180.334244,67.173378 179.830231,67.482132 
	C170.983780,71.028481 162.490021,74.387360 153.996277,77.746246 
z"/>
<path fill="#884DFA" opacity="1.000000" stroke="none" 
	d="
M334.639984,87.653671 
	C327.181885,85.748344 322.260895,89.376953 317.765137,95.572968 
	C310.788361,94.522499 304.389099,93.164032 298.155212,91.506310 
	C300.576050,87.680122 302.831573,84.153191 305.087097,80.626251 
	C313.529907,82.108307 321.986053,83.520950 330.402924,85.137932 
	C331.875702,85.420860 333.183472,86.562500 334.639984,87.653671 
z"/>
<path fill="#05C3FB" opacity="1.000000" stroke="none" 
	d="
M181.995636,66.673332 
	C183.231949,63.709442 184.495239,60.756424 185.696136,57.778244 
	C186.676575,55.346806 187.582458,52.885315 188.251862,50.206150 
	C190.658188,48.372715 193.464188,46.949898 195.980392,45.127090 
	C200.081131,42.156403 203.589813,42.888210 206.677994,46.669029 
	C204.624390,50.605186 202.812347,54.148933 200.662292,57.835918 
	C194.214737,60.877213 188.105179,63.775269 181.995636,66.673332 
z"/>
<path fill="#B417FA" opacity="1.000000" stroke="none" 
	d="
M332.199524,177.595963 
	C330.980743,177.806778 329.260376,177.297577 329.069122,177.640701 
	C325.255096,184.482880 321.625000,191.427414 317.939545,198.341553 
	C316.952576,200.193146 315.905670,202.012817 314.548370,203.543579 
	C316.536316,191.824677 318.862183,180.409363 321.544739,168.990051 
	C325.987823,166.129028 330.074188,163.271988 334.160583,160.414948 
	C333.577026,166.034241 332.993469,171.653519 332.199524,177.595963 
z"/>
<path fill="#AD15FB" opacity="1.000000" stroke="none" 
	d="
M259.707794,301.908447 
	C259.611389,303.324036 259.922150,304.938110 259.346130,306.119934 
	C257.173065,310.578400 254.617691,314.850189 252.431732,319.302948 
	C251.952316,320.279480 252.403519,321.712891 252.758209,322.989624 
	C247.949310,327.293121 242.808350,331.542938 237.299286,335.544281 
	C237.005203,333.751221 236.635620,332.000305 237.239456,330.702179 
	C238.821396,327.301392 240.921051,324.144501 242.597260,320.782196 
	C242.992950,319.988464 242.533585,318.768524 242.675201,317.465027 
	C248.491165,312.093109 254.099472,307.000793 259.707794,301.908447 
z"/>
<path fill="#7756FB" opacity="1.000000" stroke="none" 
	d="
M304.789307,80.407471 
	C302.831573,84.153191 300.576050,87.680122 297.761322,91.534042 
	C291.123444,90.265076 285.044800,88.669121 279.007172,86.720276 
	C281.029572,82.922829 283.010956,79.478279 284.992371,76.033737 
	C291.492096,77.418724 297.991821,78.803711 304.789307,80.407471 
z"/>
<path fill="#AF1FFC" opacity="1.000000" stroke="none" 
	d="
M334.336182,159.960464 
	C330.074188,163.271988 325.987823,166.129028 321.503967,168.570007 
	C321.796692,162.435257 322.486847,156.716553 323.177002,150.997864 
	C325.691315,150.218231 328.164642,149.126968 330.737000,148.788895 
	C332.046082,148.616821 333.533173,149.799332 335.002686,150.732208 
	C334.880920,153.898605 334.696350,156.702286 334.336182,159.960464 
z"/>
<path fill="#695FFC" opacity="1.000000" stroke="none" 
	d="
M284.670441,75.842842 
	C283.010956,79.478279 281.029572,82.922829 278.755005,86.738373 
	C278.305298,87.046387 278.148804,86.983414 277.787720,86.676743 
	C276.758606,86.276176 275.934082,86.119316 274.712189,85.959885 
	C270.856995,84.977722 267.399200,83.998123 264.224487,82.827126 
	C266.346436,79.055397 268.185303,75.475060 270.024170,71.894722 
	C274.798950,73.147133 279.573730,74.399544 284.670441,75.842842 
z"/>
<path fill="#A31AFA" opacity="1.000000" stroke="none" 
	d="
M242.467560,317.744629 
	C242.533585,318.768524 242.992950,319.988464 242.597260,320.782196 
	C240.921051,324.144501 238.821396,327.301392 237.239456,330.702179 
	C236.635620,332.000305 237.005203,333.751221 236.964417,335.649231 
	C233.880096,338.283783 230.762543,340.564941 227.038239,342.716705 
	C226.583603,340.143555 226.407364,337.620667 226.972244,335.276367 
	C227.653381,332.449493 228.963562,329.774200 230.002594,327.013550 
	C230.003708,326.993835 230.041977,326.999817 230.232269,326.919220 
	C230.666550,326.690399 230.844727,326.485016 231.211487,325.988708 
	C235.133148,323.084808 238.800354,320.414734 242.467560,317.744629 
z"/>
<path fill="#9125FA" opacity="1.000000" stroke="none" 
	d="
M216.014465,350.053589 
	C212.575623,352.003967 209.136780,353.954346 205.349854,355.533386 
	C205.944611,350.297363 206.887466,345.432709 208.055756,340.330902 
	C211.855408,338.108398 215.429626,336.123077 219.003342,334.526917 
	C218.652664,336.133392 218.198624,337.331665 217.971680,338.571533 
	C217.272644,342.390350 216.660431,346.225067 216.014465,350.053589 
z"/>
<path fill="#4F73FC" opacity="1.000000" stroke="none" 
	d="
M251.013535,65.978012 
	C254.420105,66.966331 257.826691,67.954643 261.426941,69.362976 
	C258.390533,72.864479 255.160446,75.945961 251.559631,79.014160 
	C248.007278,77.724869 244.825653,76.448860 241.953903,74.995468 
	C245.180344,71.871391 248.096939,68.924706 251.013535,65.978012 
z"/>
<path fill="#A01FFB" opacity="1.000000" stroke="none" 
	d="
M216.354340,349.974426 
	C216.660431,346.225067 217.272644,342.390350 217.971680,338.571533 
	C218.198624,337.331665 218.652664,336.133392 219.259781,334.296631 
	C223.011658,331.462555 226.506577,329.247925 230.001465,327.033295 
	C228.963562,329.774200 227.653381,332.449493 226.972244,335.276367 
	C226.407364,337.620667 226.583603,340.143555 226.700943,342.792236 
	C223.544968,345.296539 220.119583,347.595886 216.354340,349.974426 
z"/>
<path fill="#05C3FB" opacity="1.000000" stroke="none" 
	d="
M110.420166,282.302155 
	C111.473457,280.758453 112.733589,279.588226 113.782852,278.252380 
	C115.089546,276.588806 116.222191,274.788544 118.091873,273.155273 
	C120.878204,276.474182 123.002647,279.685150 124.763229,282.958679 
	C122.561058,286.442596 120.722748,289.863983 118.884438,293.285339 
	C116.100769,289.724274 113.317101,286.163177 110.420166,282.302155 
z"/>
<path fill="#5B67F8" opacity="1.000000" stroke="none" 
	d="
M251.930359,79.027443 
	C255.160446,75.945961 258.390533,72.864479 261.785095,69.506393 
	C264.468353,69.960960 266.987213,70.692116 269.765106,71.658997 
	C268.185303,75.475060 266.346436,79.055397 263.839783,82.838409 
	C259.424774,81.703201 255.677567,80.365326 251.930359,79.027443 
z"/>
<path fill="#2793F9" opacity="1.000000" stroke="none" 
	d="
M145.004929,319.988251 
	C142.426331,317.879822 139.847733,315.771423 137.162735,313.011414 
	C139.518448,309.513275 141.980560,306.666687 144.735138,303.944946 
	C147.691956,306.711060 150.356308,309.352264 152.674469,312.026550 
	C149.887161,314.702515 147.446045,317.345367 145.004929,319.988251 
z"/>
<path fill="#3B78F9" opacity="1.000000" stroke="none" 
	d="
M160.963531,333.079865 
	C158.422104,331.248657 155.880676,329.417450 153.309509,327.000671 
	C155.188293,323.283630 157.096786,320.152130 159.326782,317.129639 
	C162.785141,319.824280 165.922012,322.409943 168.708618,325.027954 
	C165.893402,327.733459 163.428452,330.406647 160.963531,333.079865 
z"/>
<path fill="#3F7BFD" opacity="1.000000" stroke="none" 
	d="
M250.761139,65.728035 
	C248.096939,68.924706 245.180344,71.871391 241.594894,74.982796 
	C237.854401,73.816689 234.782791,72.485870 232.034348,71.006676 
	C235.039917,67.975723 239.429596,66.276054 239.015945,61.248322 
	C242.846878,62.658234 246.677826,64.068146 250.761139,65.728035 
z"/>
<path fill="#1AA2FD" opacity="1.000000" stroke="none" 
	d="
M144.442688,303.820099 
	C141.980560,306.666687 139.518448,309.513275 137.015167,312.714050 
	C134.676376,310.720490 132.378769,308.372742 130.105865,305.372955 
	C132.214569,301.777985 134.298569,298.835022 136.659973,296.046997 
	C139.439133,298.741302 141.940903,301.280701 144.442688,303.820099 
z"/>
<path fill="#3084F9" opacity="1.000000" stroke="none" 
	d="
M159.005310,317.020660 
	C157.096786,320.152130 155.188293,323.283630 153.130798,326.721375 
	C150.412949,324.884735 147.844086,322.741852 145.140076,320.293610 
	C147.446045,317.345367 149.887161,314.702515 152.980820,312.147369 
	C155.424011,313.830261 157.214661,315.425476 159.005310,317.020660 
z"/>
<path fill="#892DFC" opacity="1.000000" stroke="none" 
	d="
M207.830307,340.568054 
	C206.887466,345.432709 205.944611,350.297363 205.002686,355.599640 
	C202.050583,358.982880 199.176712,358.057373 196.131500,355.196960 
	C197.304581,350.967346 198.675003,347.400726 200.402740,343.841064 
	C203.116806,342.754761 205.473557,341.661407 207.830307,340.568054 
z"/>
<path fill="#08BCFC" opacity="1.000000" stroke="none" 
	d="
M118.981895,293.596100 
	C120.722748,289.863983 122.561058,286.442596 124.739326,282.987183 
	C125.079285,282.953125 125.034492,282.894470 125.131821,283.131042 
	C125.492081,283.575684 125.755020,283.783752 126.351837,284.045959 
	C128.275925,286.015045 129.866150,287.930054 131.071625,289.903412 
	C125.565201,291.624786 126.281288,296.552399 124.901154,300.307770 
	C122.960556,298.174133 121.019951,296.040497 118.981895,293.596100 
z"/>
<path fill="#0CB4F9" opacity="1.000000" stroke="none" 
	d="
M201.000290,57.692680 
	C202.812347,54.148933 204.624390,50.605186 206.789764,47.004082 
	C209.962784,48.101177 212.782516,49.255630 215.439850,50.710159 
	C212.853622,54.290516 210.429764,57.570797 207.663757,60.798946 
	C205.214508,59.728771 203.107407,58.710724 201.000290,57.692680 
z"/>
<path fill="#2793F9" opacity="1.000000" stroke="none" 
	d="
M225.927078,55.377804 
	C228.904526,56.690819 231.881958,58.003834 234.732666,59.645222 
	C231.405701,62.844757 228.205475,65.715919 224.695694,68.463036 
	C222.585464,67.580292 220.784775,66.821594 219.022125,65.702927 
	C221.349136,62.021240 223.638107,58.699520 225.927078,55.377804 
z"/>
<path fill="#13B4FF" opacity="1.000000" stroke="none" 
	d="
M125.049850,300.587708 
	C126.281288,296.552399 125.565201,291.624786 131.319275,290.096893 
	C133.428650,292.118683 134.905609,294.005402 136.382553,295.892090 
	C134.298569,298.835022 132.214569,301.777985 129.989029,305.074310 
	C128.297836,303.907684 126.748192,302.387665 125.049850,300.587708 
z"/>
<path fill="#4B67FB" opacity="1.000000" stroke="none" 
	d="
M161.145203,333.352417 
	C163.428452,330.406647 165.893402,327.733459 168.881531,325.219849 
	C171.769180,326.835510 174.133636,328.291626 176.126205,329.825745 
	C172.823776,332.277405 169.893250,334.651031 166.962708,337.024628 
	C165.084106,335.891388 163.205490,334.758179 161.145203,333.352417 
z"/>
<path fill="#7C39FB" opacity="1.000000" stroke="none" 
	d="
M200.045425,343.834076 
	C198.675003,347.400726 197.304581,350.967346 195.890656,354.951752 
	C193.409927,354.030090 190.972687,352.690704 188.306274,350.789551 
	C190.351486,347.156830 192.625870,344.085876 195.231415,341.076965 
	C197.056870,342.037354 198.551147,342.935699 200.045425,343.834076 
z"/>
<path fill="#575AF8" opacity="1.000000" stroke="none" 
	d="
M167.148163,337.302216 
	C169.893250,334.651031 172.823776,332.277405 176.435669,329.912415 
	C179.062668,331.283142 181.008286,332.645233 182.587524,334.011536 
	C179.814270,336.945038 177.407410,339.874329 175.000549,342.803589 
	C172.444901,341.062317 169.889252,339.321075 167.148163,337.302216 
z"/>
<path fill="#624FFB" opacity="1.000000" stroke="none" 
	d="
M175.262451,343.026001 
	C177.407410,339.874329 179.814270,336.945038 182.925735,334.073456 
	C185.529022,335.364685 187.427719,336.598206 188.959793,337.898987 
	C186.376190,341.028778 184.159225,344.091400 181.942230,347.153992 
	C179.802948,345.852142 177.663651,344.550262 175.262451,343.026001 
z"/>
<path fill="#3688FD" opacity="1.000000" stroke="none" 
	d="
M225.005249,68.587082 
	C228.205475,65.715919 231.405701,62.844757 234.975616,59.905930 
	C236.368866,60.207745 237.392426,60.577225 238.715973,61.097511 
	C239.429596,66.276054 235.039917,67.975723 231.679108,70.981339 
	C229.002197,70.265274 227.003723,69.426178 225.005249,68.587082 
z"/>
<path fill="#7043FE" opacity="1.000000" stroke="none" 
	d="
M182.132629,347.419769 
	C184.159225,344.091400 186.376190,341.028778 189.284958,337.950500 
	C191.617920,338.961517 193.259079,339.988220 194.900253,341.014923 
	C192.625870,344.085876 190.351486,347.156830 188.036560,350.577332 
	C186.105011,349.846436 184.214005,348.765991 182.132629,347.419769 
z"/>
<path fill="#22A1FB" opacity="1.000000" stroke="none" 
	d="
M225.621445,55.208794 
	C223.638107,58.699520 221.349136,62.021240 218.680420,65.647972 
	C216.521500,65.003044 214.742325,64.053101 213.096085,62.782825 
	C215.571213,59.267105 217.913406,56.071720 220.255615,52.876331 
	C221.942352,53.597481 223.629074,54.318630 225.621445,55.208794 
z"/>
<path fill="#13ABFD" opacity="1.000000" stroke="none" 
	d="
M220.055328,52.595779 
	C217.913406,56.071720 215.571213,59.267105 212.752136,62.750740 
	C210.852158,62.309681 209.429031,61.580379 208.005905,60.851074 
	C210.429764,57.570797 212.853622,54.290516 215.640594,51.003155 
	C217.287491,51.435791 218.571274,51.875507 220.055328,52.595779 
z"/>
<path fill="#011031" opacity="1.000000" stroke="none" 
	d="
M207.663757,60.798943 
	C209.429031,61.580379 210.852158,62.309681 212.619232,63.071068 
	C214.742325,64.053101 216.521500,65.003044 218.642380,66.007935 
	C220.784775,66.821594 222.585464,67.580292 224.695694,68.463036 
	C227.003723,69.426178 229.002197,70.265274 231.355927,71.129700 
	C234.782791,72.485870 237.854401,73.816689 241.285034,75.160187 
	C244.825653,76.448860 248.007278,77.724869 251.559631,79.014160 
	C255.677567,80.365326 259.424774,81.703201 263.556702,83.029800 
	C267.399200,83.998123 270.856995,84.977722 274.933777,86.189316 
	C276.365936,86.587692 277.179138,86.754074 277.992310,86.920448 
	C278.148804,86.983414 278.305298,87.046387 278.713989,87.091263 
	C285.044800,88.669121 291.123444,90.265076 297.595978,91.833298 
	C304.389099,93.164032 310.788361,94.522499 317.593079,95.854141 
	C319.574677,96.315086 321.150848,96.802864 322.881165,97.338348 
	C323.208649,101.596527 323.537964,105.878578 323.961517,110.580292 
	C324.055176,116.023941 324.054565,121.047935 324.121094,126.534019 
	C324.079620,131.022659 323.971069,135.049194 323.941833,139.532196 
	C323.705139,143.365829 323.389099,146.742996 323.125031,150.559021 
	C322.486847,156.716553 321.796692,162.435257 321.147278,168.574005 
	C318.862183,180.409363 316.536316,191.824677 314.207825,203.620880 
	C313.491455,206.416550 312.777710,208.831314 311.924042,211.903229 
	C311.587524,213.373642 311.390900,214.186935 311.194305,215.000214 
	C310.705933,216.241409 310.217560,217.482605 309.483124,219.338470 
	C308.768707,221.597824 308.300354,223.242508 307.832001,224.887192 
	C307.832001,224.887192 307.926819,224.949020 307.704102,225.008774 
	C307.269775,225.331528 307.205994,225.626495 307.290039,225.953400 
	C301.424286,238.491837 296.145477,251.349792 289.539429,263.485229 
	C281.844025,277.621887 271.661560,290.086151 259.889771,301.616882 
	C254.099472,307.000793 248.491165,312.093109 242.675201,317.465027 
	C238.800354,320.414734 235.133148,323.084808 230.989532,326.010864 
	C230.246735,326.440857 230.089676,326.685181 230.041977,326.999817 
	C230.041977,326.999817 230.003708,326.993835 230.002594,327.013550 
	C226.506577,329.247925 223.011658,331.462555 219.260300,333.907471 
	C215.429626,336.123077 211.855408,338.108398 208.055756,340.330872 
	C205.473557,341.661407 203.116806,342.754761 200.402740,343.841064 
	C198.551147,342.935699 197.056870,342.037354 195.231415,341.076965 
	C193.259079,339.988220 191.617920,338.961517 189.651581,337.883301 
	C187.427719,336.598206 185.529022,335.364685 183.292114,334.069275 
	C181.008286,332.645233 179.062668,331.283142 176.807587,329.834381 
	C174.133636,328.291626 171.769180,326.835510 169.231796,325.187531 
	C165.922012,322.409943 162.785141,319.824280 159.326797,317.129639 
	C157.214661,315.425476 155.424011,313.830261 153.327011,312.114258 
	C150.356308,309.352264 147.691956,306.711060 144.735138,303.944946 
	C141.940903,301.280701 139.439133,298.741302 136.659973,296.046997 
	C134.905609,294.005402 133.428650,292.118683 131.704025,290.038513 
	C129.866150,287.930054 128.275925,286.015045 126.194275,283.855896 
	C125.543488,283.313538 125.320702,283.074463 125.034492,282.894470 
	C125.034492,282.894470 125.079285,282.953125 125.103188,282.924622 
	C123.002647,279.685150 120.878204,276.474182 118.460541,273.109924 
	C115.408768,268.244171 112.650215,263.531708 110.302505,258.435486 
	C118.543045,258.034882 126.374115,258.097809 134.201782,257.963013 
	C137.454865,257.906982 140.700668,257.428925 144.337952,257.069458 
	C148.150604,255.958679 151.575104,254.921280 155.315063,254.047836 
	C157.028961,255.591400 158.427399,256.971008 159.850250,258.724426 
	C162.736984,263.329681 159.639114,266.041199 157.422653,269.062195 
	C151.949585,276.522003 152.032730,276.979889 159.133514,283.361267 
	C161.165100,285.173584 163.046799,286.695862 165.076508,288.531769 
	C166.763718,288.827545 168.571136,289.321869 169.786301,288.685425 
	C172.329742,287.353302 174.561096,285.425323 177.231750,283.636719 
	C179.347961,283.390594 181.153015,283.249847 183.184448,283.361023 
	C184.900574,284.174072 186.390366,284.735260 187.916046,285.667175 
	C188.619171,288.361694 189.286377,290.685486 189.928009,293.270081 
	C189.959167,293.696167 190.015930,293.861389 190.026566,294.382111 
	C190.271301,295.615570 190.562149,296.493591 190.863251,297.700256 
	C191.601791,298.681244 192.330093,299.333557 193.398102,300.199585 
	C197.731567,300.469910 201.727417,300.465607 205.718536,300.600922 
	C209.395813,300.725586 211.838867,299.658997 212.036758,295.431610 
	C212.367905,288.357849 215.294952,283.270050 223.160736,282.382996 
	C225.890472,284.104675 228.404190,285.571838 231.106613,287.314270 
	C235.893509,292.279297 238.215866,287.525146 240.848068,285.111115 
	C251.482468,275.358307 250.785049,277.526581 242.495285,266.095154 
	C242.407608,265.974274 242.212173,265.931488 241.976913,265.497467 
	C240.685516,260.471954 242.321442,256.841888 246.398773,253.982193 
	C260.059387,251.719635 259.230530,253.274231 259.135956,239.488464 
	C259.132568,238.995316 259.119659,238.501770 259.133545,238.009033 
	C259.250885,233.845001 257.630798,231.383682 252.765900,231.583527 
	C249.976868,230.937332 247.486435,230.506821 244.710754,229.913361 
	C243.883560,228.828659 243.341629,227.906921 242.747681,226.631363 
	C238.951035,221.273376 243.066376,218.198959 245.520767,214.699341 
	C250.152573,208.094971 250.142487,208.087906 243.953247,202.514633 
	C242.899292,201.479431 241.954437,200.728333 240.931458,199.749359 
	C240.647552,199.243698 240.371979,199.096680 239.891174,198.830658 
	C239.598877,198.474655 239.442047,198.368423 239.124619,197.991913 
	C236.873108,195.427124 234.779388,193.152176 231.533997,196.833496 
	C228.150574,198.966095 225.087769,200.973633 221.820435,202.692719 
	C218.791428,200.804932 215.966934,199.205612 213.167221,197.216049 
	C212.735123,194.548340 212.278244,192.270874 211.860153,189.657516 
	C211.345062,188.186035 210.791168,187.050446 209.926941,185.606079 
	C205.465744,185.192139 201.293335,185.314087 197.169678,184.922501 
	C192.371994,184.466873 189.889725,186.207016 189.872787,191.154602 
	C189.852570,197.060318 187.749496,201.342331 181.187820,202.104507 
	C180.758911,202.154327 180.380402,202.637985 179.678146,202.795990 
	C177.894836,201.794159 176.411819,200.916199 174.766037,199.789886 
	C173.779999,199.014404 172.956726,198.487305 171.935730,197.667130 
	C169.614944,196.884598 166.699020,195.274139 165.514526,196.111847 
	C161.664764,198.834534 158.442535,202.446762 154.990906,205.729340 
	C152.976532,207.645065 152.917847,209.669739 154.666580,211.814789 
	C155.802444,213.208084 156.875977,214.652191 158.059906,216.396057 
	C159.353134,218.039841 160.563889,219.361099 161.644531,220.968948 
	C160.015060,224.176529 158.515717,227.097504 156.588608,229.967590 
	C152.429092,230.451935 148.697342,230.987167 144.522064,231.428192 
	C137.360428,232.582001 132.400864,229.860733 128.295364,224.698456 
	C126.576401,222.537033 124.274010,220.839584 122.059494,218.601898 
	C118.816010,216.835938 117.772423,214.431992 117.952370,211.087402 
	C118.174965,206.950134 118.005630,202.791794 118.005630,198.792862 
	C130.279160,192.742966 131.589645,180.422318 120.673492,173.073029 
	C118.038864,172.317062 115.702194,171.242386 113.430336,171.365356 
	C107.287308,171.697845 101.773766,177.082230 101.039650,182.878235 
	C100.078499,190.466705 102.830330,195.149612 109.985931,198.493530 
	C110.033546,201.763992 110.405029,204.627792 109.971565,207.364075 
	C108.779213,214.890915 111.483719,220.431458 117.870163,224.722763 
	C122.622368,229.374741 127.317535,233.703354 132.349564,238.252533 
	C136.070374,238.473083 139.454346,238.473083 142.984894,238.473083 
	C142.984894,242.808945 142.984894,246.358414 142.521194,249.894470 
	C137.698090,249.943771 133.338699,250.006500 128.979294,250.069244 
	C123.036713,249.999725 117.077721,249.632202 111.156906,249.958115 
	C106.690094,250.204010 103.443535,249.352264 102.026871,244.304794 
	C97.303162,231.140366 92.787933,218.276611 88.299721,205.403427 
	C87.976334,204.475906 87.850143,203.479630 87.385223,202.243393 
	C87.092972,201.521011 87.047768,201.070541 86.920776,200.010040 
	C86.612617,199.106613 86.386253,198.813248 86.159882,198.519897 
	C85.763695,196.262634 85.367516,194.005371 84.839859,191.048889 
	C84.505150,189.505646 84.301918,188.661606 84.098686,187.817566 
	C82.299866,171.851624 79.874352,155.923874 78.898529,139.907791 
	C78.103592,126.860748 79.134529,113.708115 79.153618,100.602013 
	C79.158722,97.098083 81.396027,96.628738 83.857651,96.113503 
	C90.662392,94.689201 97.475304,93.303909 104.925461,91.795853 
	C105.841492,91.507545 106.117035,91.326607 106.392570,91.145660 
	C107.745895,90.929916 109.099228,90.714172 110.733154,90.292801 
	C125.116081,86.080818 139.218399,82.074455 153.658508,77.907166 
	C162.490021,74.387360 170.983780,71.028481 179.980499,67.575684 
	C180.727509,67.401184 180.891479,67.239365 180.975372,66.996300 
	C181.159225,66.986244 181.343094,66.976196 181.761292,66.819740 
	C188.105179,63.775269 194.214737,60.877213 200.662292,57.835918 
	C203.107407,58.710724 205.214508,59.728771 207.663757,60.798943 
M192.856995,173.985153 
	C194.903427,173.939880 196.949860,173.894608 199.876480,173.985413 
	C202.249481,173.938828 204.622467,173.892242 207.897324,173.980637 
	C210.938843,173.935730 213.980347,173.890839 217.926331,173.980225 
	C221.279144,173.934860 224.631943,173.889496 228.888397,173.976944 
	C231.925537,173.929794 234.962677,173.882660 238.797928,173.947205 
	C241.241074,173.328537 243.684235,172.709885 246.750793,171.768234 
	C252.939804,169.093689 256.883545,164.503403 257.891296,157.818314 
	C258.304291,155.078888 259.154907,153.650024 261.909210,152.474060 
	C270.118805,148.968887 272.174622,136.937775 265.920227,129.279953 
	C263.573334,127.869942 261.226471,126.459938 258.648407,124.337463 
	C257.451477,121.553108 256.254547,118.768761 255.075027,115.287605 
	C252.712952,113.233047 250.350861,111.178490 247.426926,108.674622 
	C245.604019,108.197105 243.781113,107.719582 241.502304,107.102974 
	C241.502304,107.102974 241.034027,107.191994 240.393738,107.029869 
	C239.964233,106.933075 239.534714,106.836281 239.049286,106.033936 
	C237.476837,103.648666 235.904373,101.263397 234.246811,98.166512 
	C232.505157,96.107414 230.763504,94.048309 228.726044,91.430779 
	C227.516357,90.609314 226.306686,89.787849 224.769302,88.357399 
	C221.533920,86.897423 218.298538,85.437454 214.458496,83.519333 
	C208.286209,82.995201 202.113907,82.471069 195.134537,81.838226 
	C192.415070,82.548538 189.695618,83.258858 186.232803,83.964760 
	C178.187820,86.881943 171.243347,91.207863 166.387589,99.316635 
	C163.551056,103.483215 161.449646,107.668861 155.189423,108.751549 
	C149.291611,109.771561 145.883072,115.434074 144.259109,121.199532 
	C143.566818,123.657349 142.882446,125.018967 140.397263,126.087372 
	C133.891937,128.884064 132.819260,134.664200 133.151489,141.004303 
	C133.452667,146.751984 135.550186,151.081711 141.415573,153.172348 
	C142.642410,153.609619 143.295944,155.655334 144.212723,157.695877 
	C146.194046,165.150589 150.145248,170.822449 158.741531,173.337494 
	C162.485062,173.510208 166.228592,173.682938 170.855667,173.996460 
	C173.236954,173.949707 175.618256,173.902954 178.866302,173.991196 
	C180.909164,173.942200 182.952011,173.893204 185.859955,173.989563 
	C187.902817,173.941895 189.945679,173.894226 192.856995,173.985153 
z"/>
<path fill="#00DBFB" opacity="1.000000" stroke="none" 
	d="
M83.973770,188.102814 
	C84.301918,188.661606 84.505150,189.505646 84.707741,190.678772 
	C84.421013,190.134598 84.134933,189.261337 83.973770,188.102814 
z"/>
<path fill="#00D9FB" opacity="1.000000" stroke="none" 
	d="
M106.142143,91.139252 
	C106.117035,91.326607 105.841492,91.507545 105.312622,91.665314 
	C105.264618,91.354523 105.542099,91.184761 106.142143,91.139252 
z"/>
<path fill="#00DBFB" opacity="1.000000" stroke="none" 
	d="
M86.167213,198.798111 
	C86.386253,198.813248 86.612617,199.106613 86.813316,199.686234 
	C86.583282,199.673767 86.378914,199.375046 86.167213,198.798111 
z"/>
<path fill="#B417FA" opacity="1.000000" stroke="none" 
	d="
M308.191528,224.880005 
	C308.300354,223.242508 308.768707,221.597824 309.489075,219.674103 
	C310.829742,221.543671 311.457611,223.592163 308.191528,224.880005 
z"/>
<path fill="#B417FA" opacity="1.000000" stroke="none" 
	d="
M311.508057,214.959900 
	C311.390900,214.186935 311.587524,213.373642 311.941193,212.281784 
	C315.170349,213.275253 313.513733,214.099106 311.508057,214.959900 
z"/>
<path fill="#B417FA" opacity="1.000000" stroke="none" 
	d="
M307.460999,225.813110 
	C307.205994,225.626495 307.269775,225.331528 307.685730,224.955231 
	C307.912720,225.152679 307.826691,225.429642 307.460999,225.813110 
z"/>
<path fill="#08BCFC" opacity="1.000000" stroke="none" 
	d="
M128.683319,250.348328 
	C133.338699,250.006500 137.698090,249.943771 142.279968,250.198944 
	C138.180649,250.634659 134.599243,251.748703 133.527512,256.910828 
	C129.713074,256.928223 126.352272,256.884644 122.991470,256.841095 
	C121.285507,256.391632 119.579536,255.942200 117.605057,255.422028 
	C117.344032,252.367554 118.455833,250.734406 121.979652,250.954926 
	C124.100418,251.087646 126.250473,250.752365 128.683319,250.348328 
z"/>
<path fill="#010A1A" opacity="1.000000" stroke="none" 
	d="
M122.534927,256.912476 
	C126.352272,256.884644 129.713074,256.928223 133.979385,256.986572 
	C137.941544,256.952484 140.998184,256.903564 144.009720,256.919800 
	C143.964600,256.984955 143.949783,257.142792 143.949783,257.142792 
	C140.700668,257.428925 137.454865,257.906982 134.201782,257.963013 
	C126.374115,258.097809 118.543045,258.034882 110.228683,258.085693 
	C111.744179,257.750580 113.731110,257.235748 115.748154,257.052734 
	C117.843056,256.862579 119.967087,256.993408 122.534927,256.912476 
z"/>
<path fill="#05C3FB" opacity="1.000000" stroke="none" 
	d="
M180.833344,67.017685 
	C180.891479,67.239365 180.727509,67.401184 180.333191,67.388222 
	C180.334244,67.173378 180.503708,67.088181 180.833344,67.017685 
z"/>
<path fill="#7756FB" opacity="1.000000" stroke="none" 
	d="
M277.787720,86.676743 
	C277.179138,86.754074 276.365936,86.587692 275.331177,86.191879 
	C275.934082,86.119316 276.758606,86.276176 277.787720,86.676743 
z"/>
<path fill="#A01FFB" opacity="1.000000" stroke="none" 
	d="
M230.232269,326.919220 
	C230.089676,326.685181 230.246735,326.440857 230.735107,326.244690 
	C230.844727,326.485016 230.666550,326.690399 230.232269,326.919220 
z"/>
<path fill="#05C3FB" opacity="1.000000" stroke="none" 
	d="
M125.131821,283.131042 
	C125.320702,283.074463 125.543488,283.313538 125.860397,283.801758 
	C125.755020,283.783752 125.492081,283.575684 125.131821,283.131042 
z"/>
<path fill="#00D9FB" opacity="1.000000" stroke="none" 
	d="
M144.213654,156.959839 
	C143.295944,155.655334 142.642410,153.609619 141.415573,153.172348 
	C135.550186,151.081711 133.452667,146.751984 133.151489,141.004303 
	C132.819260,134.664200 133.891937,128.884064 140.397263,126.087372 
	C142.882446,125.018967 143.566818,123.657349 144.259109,121.199532 
	C145.883072,115.434074 149.291611,109.771561 155.189423,108.751549 
	C161.449646,107.668861 163.551056,103.483215 166.692917,99.593140 
	C166.027328,103.712929 165.048676,107.554291 164.089310,111.400467 
	C163.707077,112.932938 163.367554,114.476074 162.702026,116.200531 
	C154.586868,118.800934 152.403549,121.768204 152.290894,130.063034 
	C152.227783,134.710938 152.132156,139.358383 151.674377,144.008942 
	C149.747879,145.251526 147.546005,146.186234 146.792221,147.798111 
	C145.466125,150.633820 145.025238,153.883499 144.213654,156.959839 
z"/>
<path fill="#2495FC" opacity="1.000000" stroke="none" 
	d="
M179.978439,202.919846 
	C180.380402,202.637985 180.758911,202.154327 181.187820,202.104507 
	C187.749496,201.342331 189.852570,197.060318 189.872787,191.154602 
	C189.889725,186.207016 192.371994,184.466873 197.169678,184.922501 
	C201.293335,185.314087 205.465744,185.192139 209.482666,185.629395 
	C204.817657,185.018021 201.679535,187.528473 199.268509,190.677200 
	C194.458450,196.958969 189.932480,203.465546 185.489090,210.014908 
	C184.562927,211.380051 184.503113,213.332947 183.868134,215.300995 
	C172.939453,222.888397 168.917450,233.415573 168.774048,246.027176 
	C165.554016,250.171646 162.689926,254.261124 159.825836,258.350616 
	C158.427399,256.971008 157.028961,255.591400 155.360718,253.687103 
	C160.556442,241.733109 165.949814,230.268463 171.519028,218.889893 
	C174.165955,213.481918 177.148132,208.238052 179.978439,202.919846 
z"/>
<path fill="#892DFC" opacity="1.000000" stroke="none" 
	d="
M242.799683,226.985168 
	C243.341629,227.906921 243.883560,228.828659 244.711594,230.301010 
	C243.644379,234.152267 242.423508,237.514923 240.913116,240.742065 
	C236.255524,250.693665 231.363434,260.537323 226.826797,270.542786 
	C225.153687,274.232788 224.217194,278.256805 222.944733,282.128479 
	C215.294952,283.270050 212.367905,288.357849 212.036758,295.431610 
	C211.838867,299.658997 209.395813,300.725586 205.718536,300.600922 
	C201.727417,300.465607 197.731567,300.469910 193.727432,300.203247 
	C194.153992,299.949249 194.590881,299.905334 195.453415,299.914062 
	C197.859039,299.580627 200.864761,299.879456 201.653564,298.698059 
	C207.003830,290.685089 211.932755,282.387146 216.827927,274.081146 
	C217.204758,273.441742 216.278305,272.034302 216.139709,270.698975 
	C228.497635,263.066772 233.544113,252.051392 233.127960,237.834946 
	C234.624420,235.552155 235.716156,233.370667 237.288544,231.621185 
	C238.877670,229.853012 240.942978,228.512833 242.799683,226.985168 
z"/>
<path fill="#9625FD" opacity="1.000000" stroke="none" 
	d="
M223.160736,282.382996 
	C224.217194,278.256805 225.153687,274.232788 226.826797,270.542786 
	C231.363434,260.537323 236.255524,250.693665 240.913116,240.742065 
	C242.423508,237.514923 243.644379,234.152267 244.996841,230.463959 
	C247.486435,230.506821 249.976868,230.937332 252.743729,231.980865 
	C250.676559,239.714951 248.332962,246.836014 245.989365,253.957062 
	C242.321442,256.841888 240.685516,260.471954 241.792435,265.788757 
	C239.796799,268.625977 237.327759,270.545135 236.119202,273.068115 
	C233.981186,277.531403 232.610001,282.362091 230.917892,287.039001 
	C228.404190,285.571838 225.890472,284.104675 223.160736,282.382996 
z"/>
<path fill="#1AA2FD" opacity="1.000000" stroke="none" 
	d="
M179.678146,202.795990 
	C177.148132,208.238052 174.165955,213.481918 171.519028,218.889893 
	C165.949814,230.268463 160.556442,241.733109 155.045258,253.523163 
	C151.575104,254.921280 148.150604,255.958679 144.337952,257.069458 
	C143.949783,257.142792 143.964600,256.984955 143.992279,256.540771 
	C144.274979,254.993805 144.309860,253.775070 144.819885,252.806534 
	C148.834167,245.183533 152.939240,237.608368 157.016357,230.018463 
	C158.515717,227.097504 160.015060,224.176529 161.724396,220.578873 
	C166.265839,213.280884 170.597305,206.659561 174.928802,200.038239 
	C176.411819,200.916199 177.894836,201.794159 179.678146,202.795990 
z"/>
<path fill="#01D0FC" opacity="1.000000" stroke="none" 
	d="
M163.008591,116.014359 
	C163.367554,114.476074 163.707077,112.932938 164.089310,111.400467 
	C165.048676,107.554291 166.027328,103.712929 166.998657,99.429932 
	C171.243347,91.207863 178.187820,86.881943 186.872772,84.194107 
	C187.008606,87.259743 186.504501,90.096046 185.740326,93.150238 
	C181.281479,97.559868 177.082703,101.751595 172.642075,106.216888 
	C174.010757,106.656013 175.620056,106.951042 177.231995,106.966148 
	C187.816406,107.065338 198.401382,107.104103 208.673615,107.415680 
	C205.241638,107.780876 202.122238,107.892975 198.536270,108.001968 
	C195.405060,108.000061 192.740417,107.999069 190.075760,108.002953 
	C183.962128,108.011871 182.535950,109.248039 180.535461,115.932144 
	C174.384216,116.005074 168.696396,116.009720 163.008591,116.014359 
z"/>
<path fill="#7347FC" opacity="1.000000" stroke="none" 
	d="
M266.076233,129.960281 
	C272.174622,136.937775 270.118805,148.968887 261.909210,152.474060 
	C259.154907,153.650024 258.304291,155.078888 257.891296,157.818314 
	C256.883545,164.503403 252.939804,169.093689 246.140503,171.679657 
	C245.669144,168.351135 245.808105,165.111206 246.103455,161.559845 
	C247.491959,157.498520 248.724075,153.748627 250.310867,149.963593 
	C251.782501,148.606628 252.959030,147.330139 254.005936,145.954971 
	C258.051819,140.640503 262.056305,135.294525 266.076233,129.960281 
z"/>
<path fill="#01CEFA" opacity="1.000000" stroke="none" 
	d="
M117.813126,224.399399 
	C111.483719,220.431458 108.779213,214.890915 109.971565,207.364075 
	C110.405029,204.627792 110.033546,201.763992 110.350967,198.447464 
	C114.627617,196.721909 113.970856,193.446823 114.384109,190.413544 
	C118.758026,189.575943 120.300377,187.196106 119.809387,183.067749 
	C123.998749,180.001251 120.950966,176.519562 121.001022,173.300507 
	C131.589645,180.422318 130.279160,192.742966 118.005630,198.792862 
	C118.005630,202.791794 118.174965,206.950134 117.952370,211.087402 
	C117.772423,214.431992 118.816010,216.835938 121.696098,218.660950 
	C120.277771,220.832672 119.045456,222.616043 117.813126,224.399399 
z"/>
<path fill="#00D9FB" opacity="1.000000" stroke="none" 
	d="
M120.673492,173.073029 
	C120.950966,176.519562 123.998749,180.001251 119.613365,182.790924 
	C116.942131,181.870453 114.706886,180.217773 112.792717,180.530472 
	C111.389221,180.759735 109.175858,183.903870 109.516197,185.149994 
	C110.071594,187.183548 112.415031,188.728745 114.004051,190.479996 
	C113.970856,193.446823 114.627617,196.721909 110.307579,197.982620 
	C102.830330,195.149612 100.078499,190.466705 101.039650,182.878235 
	C101.773766,177.082230 107.287308,171.697845 113.430336,171.365356 
	C115.702194,171.242386 118.038864,172.317062 120.673492,173.073029 
z"/>
<path fill="#2D89FE" opacity="1.000000" stroke="none" 
	d="
M184.044037,215.014984 
	C184.503113,213.332947 184.562927,211.380051 185.489090,210.014908 
	C189.932480,203.465546 194.458450,196.958969 199.268509,190.677200 
	C201.679535,187.528473 204.817657,185.018021 209.792999,185.938171 
	C210.791168,187.050446 211.345062,188.186035 211.510025,189.667847 
	C208.074738,193.355820 204.794113,196.518036 202.053513,200.094101 
	C199.713623,203.147278 197.993988,206.675797 195.689484,210.195190 
	C191.600677,211.935898 187.822357,213.475449 184.044037,215.014984 
z"/>
<path fill="#A01FFB" opacity="1.000000" stroke="none" 
	d="
M231.106613,287.314270 
	C232.610001,282.362091 233.981186,277.531403 236.119202,273.068115 
	C237.327759,270.545135 239.796799,268.625977 241.882568,266.143555 
	C242.212173,265.931488 242.407608,265.974274 242.495285,266.095154 
	C250.785049,277.526581 251.482468,275.358307 240.848068,285.111115 
	C238.215866,287.525146 235.893509,292.279297 231.106613,287.314270 
z"/>
<path fill="#3084F9" opacity="1.000000" stroke="none" 
	d="
M159.850235,258.724426 
	C162.689926,254.261124 165.554016,250.171646 168.983429,246.330078 
	C170.357559,249.748276 171.166382,252.918564 171.763428,256.353943 
	C169.943161,259.027283 167.961624,261.269379 166.800339,263.876831 
	C163.991104,270.184265 161.564484,276.662109 158.983612,283.071289 
	C152.032730,276.979889 151.949585,276.522003 157.422653,269.062195 
	C159.639114,266.041199 162.736984,263.329681 159.850235,258.724426 
z"/>
<path fill="#01CEFA" opacity="1.000000" stroke="none" 
	d="
M144.213196,157.327850 
	C145.025238,153.883499 145.466125,150.633820 146.792221,147.798111 
	C147.546005,146.186234 149.747879,145.251526 151.776199,144.452209 
	C151.895035,153.091248 152.077255,161.042694 161.033630,165.031662 
	C159.812820,167.794662 158.914352,170.370834 158.015869,172.947006 
	C150.145248,170.822449 146.194046,165.150589 144.213196,157.327850 
z"/>
<path fill="#07C0FC" opacity="1.000000" stroke="none" 
	d="
M117.870163,224.722763 
	C119.045456,222.616043 120.277771,220.832672 121.873489,218.990250 
	C124.274010,220.839584 126.576401,222.537033 128.295364,224.698456 
	C132.400864,229.860733 137.360428,232.582001 144.589249,231.746735 
	C146.351151,235.969345 144.839340,237.827118 140.961731,237.927109 
	C137.979813,238.003983 134.995789,238.000000 132.012711,238.031967 
	C127.317535,233.703354 122.622368,229.374741 117.870163,224.722763 
z"/>
<path fill="#3B79FE" opacity="1.000000" stroke="none" 
	d="
M159.133514,283.361267 
	C161.564484,276.662109 163.991104,270.184265 166.800339,263.876831 
	C167.961624,261.269379 169.943161,259.027283 172.023834,256.554718 
	C173.679764,258.616638 174.863495,260.742859 175.910370,263.197266 
	C171.398590,271.422607 166.358307,279.027527 164.928482,288.218170 
	C163.046799,286.695862 161.165100,285.173584 159.133514,283.361267 
z"/>
<path fill="#7C39FB" opacity="1.000000" stroke="none" 
	d="
M242.747681,226.631378 
	C240.942978,228.512833 238.877670,229.853012 237.288544,231.621185 
	C235.716156,233.370667 234.624420,235.552155 232.919724,237.527298 
	C231.706314,234.671432 230.895050,231.832428 230.429703,228.930237 
	C235.204544,220.177612 239.633438,211.488174 244.062332,202.798752 
	C250.142487,208.087906 250.152573,208.094971 245.520767,214.699341 
	C243.066376,218.198959 238.951035,221.273376 242.747681,226.631378 
z"/>
<path fill="#10A8EF" opacity="1.000000" stroke="none" 
	d="
M132.349564,238.252533 
	C134.995789,238.000000 137.979813,238.003983 140.961731,237.927109 
	C144.839340,237.827118 146.351151,235.969345 145.032776,231.840942 
	C148.697342,230.987167 152.429092,230.451935 156.588593,229.967590 
	C152.939240,237.608368 148.834167,245.183533 144.819885,252.806534 
	C144.309860,253.775070 144.274979,254.993805 144.037415,256.475616 
	C140.998184,256.903564 137.941544,256.952484 134.433014,256.925659 
	C134.599243,251.748703 138.180649,250.634659 142.743668,250.212357 
	C142.984894,246.358414 142.984894,242.808945 142.984894,238.473083 
	C139.454346,238.473083 136.070374,238.473083 132.349564,238.252533 
z"/>
<path fill="#6951FD" opacity="1.000000" stroke="none" 
	d="
M265.998230,129.620117 
	C262.056305,135.294525 258.051819,140.640503 254.005936,145.954971 
	C252.959030,147.330139 251.782501,148.606628 250.223648,149.502731 
	C249.832077,143.716858 249.882385,138.356705 250.278656,132.952026 
	C253.376266,130.288300 256.127930,127.669121 258.879578,125.049942 
	C261.226471,126.459938 263.573334,127.869942 265.998230,129.620117 
z"/>
<path fill="#456EFD" opacity="1.000000" stroke="none" 
	d="
M165.076508,288.531769 
	C166.358307,279.027527 171.398590,271.422607 176.202118,263.343201 
	C178.109192,264.707520 179.587616,266.254150 181.019501,268.167328 
	C179.285812,271.755981 177.267654,274.860382 176.061066,278.253357 
	C175.515640,279.787079 176.584274,281.894806 176.920624,283.742096 
	C174.561096,285.425323 172.329742,287.353302 169.786301,288.685425 
	C168.571136,289.321869 166.763718,288.827545 165.076508,288.531769 
z"/>
<path fill="#A41EFE" opacity="1.000000" stroke="none" 
	d="
M246.398773,253.982193 
	C248.332962,246.836014 250.676559,239.714951 253.042358,232.196548 
	C257.630798,231.383682 259.250885,233.845001 259.133545,238.009033 
	C259.119659,238.501770 259.132568,238.995316 259.135956,239.488464 
	C259.230530,253.274231 260.059387,251.719635 246.398773,253.982193 
z"/>
<path fill="#7043FE" opacity="1.000000" stroke="none" 
	d="
M243.953247,202.514633 
	C239.633438,211.488174 235.204544,220.177612 230.229767,228.656708 
	C228.444443,226.322693 227.205002,224.199036 226.153442,221.792282 
	C230.655945,213.760193 234.970566,206.011200 239.285202,198.262192 
	C239.442047,198.368423 239.598877,198.474655 239.998627,199.034683 
	C240.441177,199.739929 240.697205,199.902847 241.009583,199.977234 
	C241.954437,200.728333 242.899292,201.479431 243.953247,202.514633 
z"/>
<path fill="#3B79FE" opacity="1.000000" stroke="none" 
	d="
M195.999985,209.994049 
	C197.993988,206.675797 199.713623,203.147278 202.053513,200.094101 
	C204.794113,196.518036 208.074738,193.355820 211.471237,190.003754 
	C212.278244,192.270874 212.735123,194.548340 213.123550,197.616486 
	C212.320724,199.822403 211.675720,201.293579 210.832520,202.640686 
	C209.281357,205.118866 207.613617,207.524063 205.541092,209.976028 
	C202.058472,209.992920 199.029236,209.993484 195.999985,209.994049 
z"/>
<path fill="#664BFC" opacity="1.000000" stroke="none" 
	d="
M239.124619,197.991913 
	C234.970566,206.011200 230.655945,213.760193 225.880692,221.624298 
	C224.276962,220.493439 223.133865,219.247498 222.029160,217.651230 
	C224.949463,212.705795 228.049805,208.227783 230.606308,203.458267 
	C231.636017,201.537231 231.474182,198.977478 231.854630,196.708420 
	C234.779388,193.152176 236.873108,195.427124 239.124619,197.991913 
z"/>
<path fill="#7043FE" opacity="1.000000" stroke="none" 
	d="
M195.027771,299.861420 
	C194.590881,299.905334 194.153992,299.949249 193.387756,299.989532 
	C192.330093,299.333557 191.601791,298.681244 190.902954,297.331970 
	C190.645844,295.765533 190.359253,294.896088 190.072678,294.026642 
	C190.015930,293.861389 189.959167,293.696167 190.239594,293.117767 
	C194.050186,286.814056 197.523605,280.923523 201.376770,274.933350 
	C203.831131,274.569397 205.905777,274.305115 207.838287,274.366638 
	C204.950684,279.864624 202.141693,285.004486 199.483383,290.221130 
	C197.877289,293.372925 196.505066,296.643951 195.027771,299.861420 
z"/>
<path fill="#5B55FB" opacity="1.000000" stroke="none" 
	d="
M231.533997,196.833496 
	C231.474182,198.977478 231.636017,201.537231 230.606308,203.458267 
	C228.049805,208.227783 224.949463,212.705795 221.725647,217.506134 
	C218.922989,216.041489 216.462234,214.371613 214.190735,212.441406 
	C216.928329,209.114456 219.476654,206.047821 222.024963,202.981171 
	C225.087769,200.973633 228.150574,198.966095 231.533997,196.833496 
z"/>
<path fill="#0CB4F9" opacity="1.000000" stroke="none" 
	d="
M157.977432,216.073532 
	C156.875977,214.652191 155.802444,213.208084 154.666580,211.814789 
	C152.917847,209.669739 152.976532,207.645065 154.990906,205.729340 
	C158.442535,202.446762 161.664764,198.834534 165.514526,196.111847 
	C166.699020,195.274139 169.614944,196.884598 171.578369,197.708130 
	C170.234985,199.116653 168.805756,200.019119 167.911163,201.296127 
	C164.506348,206.156387 161.274139,211.137543 157.977432,216.073532 
z"/>
<path fill="#3688FD" opacity="1.000000" stroke="none" 
	d="
M234.331909,98.878143 
	C235.904373,101.263397 237.476837,103.648666 239.019714,106.762352 
	C237.988831,110.282799 236.987534,113.074829 235.537506,115.935608 
	C232.056931,115.957512 229.025101,115.910660 226.001312,115.500183 
	C227.309143,112.339813 228.608917,109.543060 229.788879,106.514542 
	C229.454956,105.820633 229.240875,105.358482 229.024109,104.531830 
	C230.791580,102.404266 232.561752,100.641205 234.331909,98.878143 
z"/>
<path fill="#05C3FB" opacity="1.000000" stroke="none" 
	d="
M186.000397,92.932343 
	C186.504501,90.096046 187.008606,87.259743 187.244446,84.196312 
	C189.695618,83.258858 192.415070,82.548538 195.987274,81.919350 
	C199.481415,82.000473 202.122803,82.000473 205.518295,82.000473 
	C203.981064,85.356979 202.992249,87.516052 201.563507,89.738235 
	C196.082504,90.845009 191.041458,91.888672 186.000397,92.932343 
z"/>
<path fill="#13ABFD" opacity="1.000000" stroke="none" 
	d="
M158.059906,216.396057 
	C161.274139,211.137543 164.506348,206.156387 167.911163,201.296127 
	C168.805756,200.019119 170.234985,199.116653 171.776062,198.001190 
	C172.956726,198.487305 173.779999,199.014404 174.766022,199.789886 
	C170.597305,206.659561 166.265839,213.280884 161.854492,220.292267 
	C160.563889,219.361099 159.353134,218.039841 158.059906,216.396057 
z"/>
<path fill="#664BFC" opacity="1.000000" stroke="none" 
	d="
M200.997025,275.032959 
	C197.523605,280.923523 194.050186,286.814056 190.265167,292.856934 
	C189.286377,290.685486 188.619171,288.361694 187.952728,285.273254 
	C189.637558,280.991150 191.321609,277.473663 193.414413,273.939148 
	C196.214447,274.292389 198.605743,274.662659 200.997025,275.032959 
z"/>
<path fill="#4B67FB" opacity="1.000000" stroke="none" 
	d="
M221.820450,202.692719 
	C219.476654,206.047821 216.928329,209.114456 213.859589,212.338287 
	C210.890961,211.650238 208.442703,210.804962 205.994461,209.959686 
	C207.613617,207.524063 209.281357,205.118866 210.832520,202.640686 
	C211.675720,201.293579 212.320724,199.822403 213.098770,198.006744 
	C215.966934,199.205612 218.791428,200.804932 221.820450,202.692719 
z"/>
<path fill="#5D5BF9" opacity="1.000000" stroke="none" 
	d="
M258.763977,124.693710 
	C256.127930,127.669121 253.376266,130.288300 250.189468,132.543777 
	C249.473816,129.174042 249.193314,126.167992 248.963730,122.799118 
	C251.028976,120.285660 253.043304,118.135033 255.057617,115.984406 
	C256.254547,118.768761 257.451477,121.553108 258.763977,124.693710 
z"/>
<path fill="#3B79FE" opacity="1.000000" stroke="none" 
	d="
M217.021851,173.845947 
	C213.980347,173.890839 210.938843,173.935730 207.454498,173.550659 
	C208.007843,170.471161 209.004028,167.821640 210.453674,165.102982 
	C214.270294,165.080612 217.633453,165.127365 220.953323,165.518311 
	C219.613983,168.523666 218.317917,171.184799 217.021851,173.845947 
z"/>
<path fill="#4B67FB" opacity="1.000000" stroke="none" 
	d="
M177.231750,283.636719 
	C176.584274,281.894806 175.515640,279.787079 176.061066,278.253357 
	C177.267654,274.860382 179.285812,271.755981 181.331848,268.233429 
	C182.842957,268.820282 183.995163,269.707581 185.107635,271.026306 
	C184.364609,275.341553 183.661346,279.225311 182.958084,283.109100 
	C181.153015,283.249847 179.347961,283.390594 177.231750,283.636719 
z"/>
<path fill="#456EFD" opacity="1.000000" stroke="none" 
	d="
M217.474091,173.913086 
	C218.317917,171.184799 219.613983,168.523666 221.403397,165.449188 
	C224.931580,165.081009 227.966431,165.126144 230.956284,165.519958 
	C229.935791,168.527130 228.960266,171.185623 227.984756,173.844116 
	C224.631943,173.889496 221.279144,173.934860 217.474091,173.913086 
z"/>
<path fill="#07C0FC" opacity="1.000000" stroke="none" 
	d="
M158.378693,173.142242 
	C158.914352,170.370834 159.812820,167.794662 161.317139,165.036407 
	C162.295990,164.848251 162.669006,164.842194 163.450256,164.909256 
	C165.237106,165.044067 166.615707,165.105774 168.050995,165.541199 
	C168.729172,168.561859 169.350647,171.208755 169.972122,173.855667 
	C166.228592,173.682938 162.485062,173.510208 158.378693,173.142242 
z"/>
<path fill="#5B55FB" opacity="1.000000" stroke="none" 
	d="
M183.184448,283.361023 
	C183.661346,279.225311 184.364609,275.341553 185.448853,271.161560 
	C188.221756,271.895630 190.613708,272.925934 193.005661,273.956207 
	C191.321609,277.473663 189.637558,280.991150 187.916824,284.902527 
	C186.390366,284.735260 184.900574,284.174072 183.184448,283.361023 
z"/>
<path fill="#3F7BFD" opacity="1.000000" stroke="none" 
	d="
M235.986237,115.866852 
	C236.987534,113.074829 237.988831,110.282799 239.047668,107.115128 
	C239.534714,106.836281 239.964233,106.933075 240.796600,107.248665 
	C241.199448,107.467461 241.623535,107.562897 241.623535,107.562897 
	C241.623535,107.562897 241.958206,107.242065 241.958206,107.242065 
	C243.781113,107.719582 245.604019,108.197105 247.669922,109.243256 
	C246.209747,112.236214 244.506561,114.660530 242.423828,117.076416 
	C240.024918,116.667603 238.005585,116.267235 235.986237,115.866852 
z"/>
<path fill="#0CB4F9" opacity="1.000000" stroke="none" 
	d="
M202.003448,89.675125 
	C202.992249,87.516052 203.981064,85.356979 205.518295,82.000473 
	C202.122803,82.000473 199.481415,82.000473 196.390823,81.973701 
	C202.113907,82.471069 208.286209,82.995201 214.407104,83.807388 
	C213.234955,86.411667 212.114197,88.727890 210.580734,91.062645 
	C207.446518,90.612488 204.724976,90.143806 202.003448,89.675125 
z"/>
<path fill="#0CB4F9" opacity="1.000000" stroke="none" 
	d="
M170.413895,173.926056 
	C169.350647,171.208755 168.729172,168.561859 168.500656,165.468475 
	C171.928604,165.071503 174.963608,165.120972 178.045410,165.524689 
	C178.061325,168.538025 178.030441,171.197113 177.999542,173.856201 
	C175.618256,173.902954 173.236954,173.949707 170.413895,173.926056 
z"/>
<path fill="#13ABFD" opacity="1.000000" stroke="none" 
	d="
M210.993423,91.044113 
	C212.114197,88.727890 213.234955,86.411667 214.709442,84.036469 
	C218.298538,85.437454 221.533920,86.897423 224.562698,88.674423 
	C222.218719,90.719734 220.081345,92.448021 217.604996,94.067986 
	C215.175156,92.987808 213.084290,92.015961 210.993423,91.044113 
z"/>
<path fill="#5D5BF9" opacity="1.000000" stroke="none" 
	d="
M228.436584,173.910522 
	C228.960266,171.185623 229.935791,168.527130 231.396790,165.452652 
	C234.258255,164.975327 236.634232,164.914001 238.979645,164.933380 
	C238.949051,165.014099 238.951996,165.186722 238.958588,165.578918 
	C238.643387,168.592590 238.321594,171.214050 237.999817,173.835510 
	C234.962677,173.882660 231.925537,173.929794 228.436584,173.910522 
z"/>
<path fill="#4B67FB" opacity="1.000000" stroke="none" 
	d="
M242.803406,117.084854 
	C244.506561,114.660530 246.209747,112.236214 247.950867,109.467911 
	C250.350861,111.178490 252.712952,113.233047 255.066315,115.636002 
	C253.043304,118.135033 251.028976,120.285660 248.689056,122.600128 
	C246.510101,120.870934 244.656754,118.977898 242.803406,117.084854 
z"/>
<path fill="#2D89FE" opacity="1.000000" stroke="none" 
	d="
M210.000198,165.172104 
	C209.004028,167.821640 208.007843,170.471161 207.003571,173.483185 
	C204.622467,173.892242 202.249481,173.938828 199.486023,173.554123 
	C199.728500,170.473557 200.361435,167.824295 201.440582,165.105804 
	C204.591263,165.081741 207.295731,165.126923 210.000198,165.172104 
z"/>
<path fill="#664BFC" opacity="1.000000" stroke="none" 
	d="
M238.398865,173.891357 
	C238.321594,171.214050 238.643387,168.592590 239.304016,165.480988 
	C241.744247,163.950989 243.845642,162.911133 245.947052,161.871277 
	C245.808105,165.111206 245.669144,168.351135 245.828796,171.841141 
	C243.684235,172.709885 241.241074,173.328537 238.398865,173.891357 
z"/>
<path fill="#22A1FB" opacity="1.000000" stroke="none" 
	d="
M217.943970,94.176315 
	C220.081345,92.448021 222.218719,90.719734 224.726547,88.978912 
	C226.306686,89.787849 227.516357,90.609314 228.833099,92.053703 
	C226.975266,94.451958 225.010376,96.227287 222.737732,97.891212 
	C220.934647,96.578644 219.439301,95.377480 217.943970,94.176315 
z"/>
<path fill="#1AA2FD" opacity="1.000000" stroke="none" 
	d="
M191.988525,173.846558 
	C189.945679,173.894226 187.902817,173.941895 185.429810,173.518814 
	C185.331512,170.423508 185.663345,167.798950 186.435059,165.103821 
	C189.247009,165.080292 191.619049,165.127319 193.985580,165.547394 
	C193.316223,168.562469 192.652374,171.204514 191.988525,173.846558 
z"/>
<path fill="#13ABFD" opacity="1.000000" stroke="none" 
	d="
M185.995178,165.174393 
	C185.663345,167.798950 185.331512,170.423508 184.997284,173.446136 
	C182.952011,173.893204 180.909164,173.942200 178.432922,173.923706 
	C178.030441,171.197113 178.061325,168.538025 178.485321,165.455444 
	C181.250702,165.079437 183.622940,165.126923 185.995178,165.174393 
z"/>
<path fill="#2495FC" opacity="1.000000" stroke="none" 
	d="
M192.422760,173.915863 
	C192.652374,171.204514 193.316223,168.562469 194.419281,165.476227 
	C196.903809,165.079697 198.949081,165.127365 200.994370,165.175018 
	C200.361435,167.824295 199.728500,170.473557 199.045929,173.486084 
	C196.949860,173.894608 194.903427,173.939880 192.422760,173.915863 
z"/>
<path fill="#2793F9" opacity="1.000000" stroke="none" 
	d="
M223.045486,98.002617 
	C225.010376,96.227287 226.975266,94.451958 228.980988,92.332916 
	C230.763504,94.048309 232.505157,96.107414 234.289368,98.522324 
	C232.561752,100.641205 230.791580,102.404266 228.807266,104.455811 
	C228.593124,104.744278 228.152267,104.614334 228.087662,104.294418 
	C226.363861,101.983879 224.704666,99.993248 223.045486,98.002617 
z"/>
<path fill="#664BFC" opacity="1.000000" stroke="none" 
	d="
M190.026566,294.382111 
	C190.359253,294.896088 190.645844,295.765533 190.892700,297.003296 
	C190.562149,296.493591 190.271301,295.615570 190.026566,294.382111 
z"/>
<path fill="#3688FD" opacity="1.000000" stroke="none" 
	d="
M241.730255,107.172516 
	C241.958206,107.242065 241.623535,107.562897 241.623535,107.562897 
	C241.623535,107.562897 241.199448,107.467461 241.116730,107.329727 
	C241.034027,107.191994 241.502304,107.102974 241.730255,107.172516 
z"/>
<path fill="#664BFC" opacity="1.000000" stroke="none" 
	d="
M240.931458,199.749359 
	C240.697205,199.902847 240.441177,199.739929 240.134079,199.284454 
	C240.371979,199.096680 240.647552,199.243698 240.931458,199.749359 
z"/>
<path fill="#011132" opacity="1.000000" stroke="none" 
	d="
M246.103455,161.559845 
	C243.845642,162.911133 241.744247,163.950989 239.297424,165.088776 
	C238.951996,165.186722 238.949051,165.014099 238.661316,164.666916 
	C237.559555,164.211029 236.745621,164.007965 235.931534,164.007370 
	C212.882492,163.990784 189.833420,163.981522 166.784470,164.030945 
	C165.536407,164.033615 164.289474,164.555786 163.042007,164.836121 
	C162.669006,164.842194 162.295990,164.848251 161.639465,164.849579 
	C152.077255,161.042694 151.895035,153.091248 152.152985,144.449310 
	C152.132156,139.358383 152.227783,134.710938 152.290894,130.063034 
	C152.403549,121.768204 154.586868,118.800934 162.702026,116.200531 
	C168.696396,116.009720 174.384216,116.005074 180.996231,116.007065 
	C186.613708,115.963371 191.306961,115.913048 196.459595,115.935165 
	C201.265640,115.957657 205.612335,115.907700 210.394470,115.932617 
	C212.883759,115.960091 214.937607,115.912689 217.437103,115.937668 
	C220.586243,115.961296 223.289749,115.912552 225.993256,115.863808 
	C229.025101,115.910660 232.056931,115.957512 235.537506,115.935608 
	C238.005585,116.267235 240.024918,116.667603 242.423828,117.076416 
	C244.656754,118.977898 246.510101,120.870934 248.638123,122.962952 
	C249.193314,126.167992 249.473816,129.174042 249.843506,132.588318 
	C249.882385,138.356705 249.832077,143.716858 249.868973,149.537857 
	C248.724075,153.748627 247.491959,157.498520 246.103455,161.559845 
M171.320953,148.657547 
	C173.165329,152.164597 176.056458,153.625198 179.881332,152.598938 
	C183.773392,151.554688 184.710175,148.653427 184.384232,144.911545 
	C184.098221,141.627899 184.188690,138.311478 184.223953,134.231445 
	C182.990173,129.878662 179.678635,129.154358 175.964539,129.959641 
	C172.406967,130.731003 170.848129,133.365280 170.968033,136.995331 
	C171.088745,140.649155 171.171234,144.304214 171.320953,148.657547 
M230.780502,133.301300 
	C229.032257,130.036850 226.016113,128.876038 222.887009,130.110687 
	C220.899124,130.895050 218.346146,133.191483 218.161133,135.023392 
	C217.692062,139.667831 218.414703,144.432632 218.921890,149.829285 
	C224.313980,154.268677 230.751190,153.267715 231.474518,147.548477 
	C232.034470,143.120911 231.213028,138.518616 230.780502,133.301300 
z"/>
<path fill="#021031" opacity="1.000000" stroke="none" 
	d="
M193.414413,273.939148 
	C190.613708,272.925934 188.221756,271.895630 185.488586,270.730103 
	C183.995163,269.707581 182.842957,268.820282 181.378387,267.866882 
	C179.587616,266.254150 178.109192,264.707520 176.338989,263.015015 
	C174.863495,260.742859 173.679764,258.616638 172.235626,256.289612 
	C171.166382,252.918564 170.357559,249.748276 169.339355,246.275085 
	C168.917450,233.415573 172.939453,222.888397 183.868149,215.300995 
	C187.822357,213.475449 191.600677,211.935898 195.689484,210.195190 
	C199.029236,209.993484 202.058472,209.992920 205.541092,209.976028 
	C208.442703,210.804962 210.890961,211.650238 213.670334,212.598618 
	C216.462234,214.371613 218.922989,216.041489 221.687256,217.856476 
	C223.133865,219.247498 224.276962,220.493439 225.692810,221.907379 
	C227.205002,224.199036 228.444443,226.322693 229.883835,228.719894 
	C230.895050,231.832428 231.706314,234.671432 232.725830,237.818085 
	C233.544113,252.051392 228.497635,263.066772 215.786011,270.755859 
	C212.826950,272.078705 210.403687,273.059784 207.980408,274.040833 
	C205.905777,274.305115 203.831131,274.569397 201.376770,274.933350 
	C198.605743,274.662659 196.214447,274.292389 193.414413,273.939148 
M186.568130,254.576538 
	C189.039841,256.292633 191.511536,258.008759 194.718109,260.043701 
	C196.806900,260.349762 198.895676,260.655823 201.798523,261.111359 
	C215.593155,259.995758 223.694809,246.905273 217.987610,234.154495 
	C217.072006,232.731552 216.156418,231.308594 214.933426,229.296722 
	C213.378830,228.158508 211.824249,227.020294 209.754852,225.337967 
	C205.748322,224.856567 201.741776,224.375153 196.992126,223.830505 
	C184.104324,227.441422 178.783539,239.485489 184.946869,251.960861 
	C185.407440,252.636627 185.867996,253.312408 186.568130,254.576538 
z"/>
<path fill="#7E35FD" opacity="1.000000" stroke="none" 
	d="
M207.838287,274.366638 
	C210.403687,273.059784 212.826950,272.078705 215.603928,271.040741 
	C216.278305,272.034302 217.204758,273.441742 216.827927,274.081146 
	C211.932755,282.387146 207.003830,290.685089 201.653564,298.698059 
	C200.864761,299.879456 197.859039,299.580627 195.453400,299.914062 
	C196.505066,296.643951 197.877289,293.372925 199.483383,290.221130 
	C202.141693,285.004486 204.950684,279.864624 207.838287,274.366638 
z"/>
<path fill="#001130" opacity="1.000000" stroke="none" 
	d="
M222.737732,97.891212 
	C224.704666,99.993248 226.363861,101.983879 227.832123,104.656967 
	C226.358963,105.558678 225.077011,105.966743 223.794479,105.968620 
	C206.824341,105.993500 189.854111,105.961273 172.883911,105.943321 
	C177.082703,101.751595 181.281479,97.559868 185.740326,93.150238 
	C191.041458,91.888672 196.082504,90.845009 201.563507,89.738235 
	C204.724976,90.143806 207.446518,90.612488 210.580734,91.062637 
	C213.084290,92.015961 215.175156,92.987808 217.604996,94.067993 
	C219.439301,95.377480 220.934647,96.578644 222.737732,97.891212 
z"/>
<path fill="#07C0FC" opacity="1.000000" stroke="none" 
	d="
M196.000229,115.862717 
	C191.306961,115.913048 186.613708,115.963371 181.459686,115.938774 
	C182.535950,109.248039 183.962128,108.011871 190.075760,108.002953 
	C192.740417,107.999069 195.405060,108.000061 198.497818,108.357880 
	C197.950684,111.098839 196.975464,113.480782 196.000229,115.862717 
z"/>
<path fill="#13B4FF" opacity="1.000000" stroke="none" 
	d="
M196.459595,115.935165 
	C196.975464,113.480782 197.950684,111.098839 198.964371,108.360992 
	C202.122238,107.892975 205.241638,107.780876 209.137360,107.340485 
	C215.591080,107.061874 221.268509,107.111557 226.656891,107.414078 
	C224.246277,107.781212 222.124695,107.895523 219.557541,108.005219 
	C213.920990,107.460091 209.290894,108.029884 207.347260,114.179672 
	C208.149094,114.694847 209.054062,115.276299 209.959030,115.857750 
	C205.612335,115.907700 201.265640,115.957657 196.459595,115.935165 
z"/>
<path fill="#010A1A" opacity="1.000000" stroke="none" 
	d="
M226.945923,107.161240 
	C221.268509,107.111557 215.591080,107.061874 209.449921,107.087387 
	C198.401382,107.104103 187.816406,107.065338 177.231995,106.966148 
	C175.620056,106.951042 174.010757,106.656013 172.642075,106.216888 
	C189.854111,105.961273 206.824341,105.993500 223.794479,105.968620 
	C225.077011,105.966743 226.358963,105.558678 227.896729,104.976883 
	C228.152267,104.614334 228.593124,104.744278 228.809967,104.820305 
	C229.240875,105.358482 229.454956,105.820633 229.421326,106.584625 
	C228.431061,106.978058 227.688492,107.069649 226.945923,107.161240 
z"/>
<path fill="#011132" opacity="1.000000" stroke="none" 
	d="
M114.384109,190.413544 
	C112.415031,188.728745 110.071594,187.183548 109.516197,185.149994 
	C109.175858,183.903870 111.389221,180.759735 112.792717,180.530472 
	C114.706886,180.217773 116.942131,181.870453 119.235748,182.957321 
	C120.300377,187.196106 118.758026,189.575943 114.384109,190.413544 
z"/>
<path fill="#2495FC" opacity="1.000000" stroke="none" 
	d="
M226.656891,107.414078 
	C227.688492,107.069649 228.431061,106.978058 229.541168,106.816391 
	C228.608917,109.543060 227.309143,112.339813 226.001312,115.500183 
	C223.289749,115.912552 220.586243,115.961296 217.440201,115.564224 
	C217.999481,112.748894 219.001297,110.379364 220.003113,108.009834 
	C222.124695,107.895523 224.246277,107.781212 226.656891,107.414078 
z"/>
<path fill="#010A1A" opacity="1.000000" stroke="none" 
	d="
M163.450256,164.909241 
	C164.289474,164.555786 165.536407,164.033615 166.784470,164.030945 
	C189.833420,163.981522 212.882492,163.990784 235.931534,164.007370 
	C236.745621,164.007965 237.559555,164.211029 238.691895,164.586212 
	C236.634232,164.914001 234.258255,164.975327 231.441772,165.103973 
	C227.966431,165.126144 224.931580,165.081009 221.446671,165.104980 
	C217.633453,165.127365 214.270294,165.080612 210.453674,165.102982 
	C207.295731,165.126923 204.591263,165.081741 201.440582,165.105804 
	C198.949081,165.127365 196.903809,165.079697 194.424805,165.103180 
	C191.619049,165.127319 189.247009,165.080292 186.435074,165.103821 
	C183.622940,165.126923 181.250702,165.079437 178.438522,165.101196 
	C174.963608,165.120972 171.928604,165.071503 168.443970,165.094742 
	C166.615707,165.105774 165.237106,165.044067 163.450256,164.909241 
z"/>
<path fill="#3F7BFD" opacity="1.000000" stroke="none" 
	d="
M218.660126,149.149231 
	C218.414703,144.432632 217.692062,139.667831 218.161133,135.023392 
	C218.346146,133.191483 220.899124,130.895050 222.887009,130.110687 
	C226.016113,128.876038 229.032257,130.036850 230.587250,133.798950 
	C229.334930,135.709610 228.310165,137.149948 227.210098,138.530273 
	C224.377884,142.084106 221.512344,145.611374 218.660126,149.149231 
z"/>
<path fill="#05C3FB" opacity="1.000000" stroke="none" 
	d="
M171.270477,147.958740 
	C171.171234,144.304214 171.088745,140.649155 170.968033,136.995331 
	C170.848129,133.365280 172.406967,130.731003 175.964539,129.959641 
	C179.678635,129.154358 182.990173,129.878662 183.808777,134.649902 
	C182.337280,136.217545 181.293640,137.378662 180.222229,138.513565 
	C177.244492,141.667801 174.255203,144.811111 171.270477,147.958740 
z"/>
<path fill="#476BF7" opacity="1.000000" stroke="none" 
	d="
M218.791016,149.489258 
	C221.512344,145.611374 224.377884,142.084106 227.210098,138.530273 
	C228.310165,137.149948 229.334930,135.709610 230.699844,134.145294 
	C231.213028,138.518616 232.034470,143.120911 231.474518,147.548477 
	C230.751190,153.267715 224.313980,154.268677 218.791016,149.489258 
z"/>
<path fill="#08BCFC" opacity="1.000000" stroke="none" 
	d="
M171.295715,148.308136 
	C174.255203,144.811111 177.244492,141.667801 180.222229,138.513565 
	C181.293640,137.378662 182.337280,136.217545 183.753235,135.038940 
	C184.188690,138.311478 184.098221,141.627899 184.384232,144.911545 
	C184.710175,148.653427 183.773392,151.554688 179.881332,152.598938 
	C176.056458,153.625198 173.165329,152.164597 171.295715,148.308136 
z"/>
<path fill="#1AA2FD" opacity="1.000000" stroke="none" 
	d="
M219.557541,108.005219 
	C219.001297,110.379364 217.999481,112.748894 216.994568,115.491852 
	C214.937607,115.912689 212.883759,115.960091 210.394470,115.932617 
	C209.054062,115.276299 208.149094,114.694847 207.347260,114.179672 
	C209.290894,108.029884 213.920990,107.460091 219.557541,108.005219 
z"/>
<path fill="#3B78F9" opacity="1.000000" stroke="none" 
	d="
M184.834488,251.350388 
	C178.783539,239.485489 184.104324,227.441422 197.752777,223.899185 
	C199.089920,225.032990 200.362167,226.318665 200.107986,227.120438 
	C199.436707,229.237991 198.103622,231.145767 196.808151,233.385315 
	C192.503159,235.431717 191.266861,238.941788 190.594101,243.039032 
	C188.442551,245.835175 186.638519,248.592773 184.834488,251.350388 
z"/>
<path fill="#6A46FA" opacity="1.000000" stroke="none" 
	d="
M218.077484,234.808197 
	C223.694809,246.905273 215.593155,259.995758 201.434235,260.688690 
	C202.711929,257.223633 204.353912,254.181259 206.287994,250.950699 
	C208.116501,248.174530 209.652924,245.586533 211.429718,242.771515 
	C213.805893,239.965714 215.941696,237.386948 218.077484,234.808197 
z"/>
<path fill="#5B55FB" opacity="1.000000" stroke="none" 
	d="
M205.995895,251.138870 
	C204.353912,254.181259 202.711929,257.223633 201.027191,260.613953 
	C198.895676,260.655823 196.806900,260.349762 194.362106,259.530457 
	C195.365906,256.661774 196.725708,254.306335 198.493805,251.934723 
	C201.266693,251.658646 203.631302,251.398758 205.995895,251.138870 
z"/>
<path fill="#476BF7" opacity="1.000000" stroke="none" 
	d="
M197.033997,233.137039 
	C198.103622,231.145767 199.436707,229.237991 200.107986,227.120438 
	C200.362167,226.318665 199.089920,225.032990 198.124344,223.930817 
	C201.741776,224.375153 205.748322,224.856567 209.656876,225.678085 
	C207.373932,228.279572 205.188965,230.540924 202.576202,232.819275 
	C200.443619,232.936508 198.738800,233.036774 197.033997,233.137039 
z"/>
<path fill="#575AF8" opacity="1.000000" stroke="none" 
	d="
M203.003998,232.802292 
	C205.188965,230.540924 207.373932,228.279572 209.914276,225.950134 
	C211.824249,227.020294 213.378830,228.158508 214.762955,229.743622 
	C213.029816,232.532028 211.467163,234.873535 209.626801,237.013977 
	C207.234055,235.476044 205.119034,234.139160 203.003998,232.802292 
z"/>
<path fill="#4B67FB" opacity="1.000000" stroke="none" 
	d="
M198.085510,251.950912 
	C196.725708,254.306335 195.365906,256.661774 193.994675,259.371033 
	C191.511536,258.008759 189.039841,256.292633 186.793091,254.277557 
	C189.068283,252.298935 191.118530,250.619293 193.455780,249.096085 
	C195.190353,250.151978 196.637939,251.051453 198.085510,251.950912 
z"/>
<path fill="#624FFB" opacity="1.000000" stroke="none" 
	d="
M209.904510,237.215057 
	C211.467163,234.873535 213.029816,232.532028 214.916656,230.038086 
	C216.156418,231.308594 217.072006,232.731552 218.032547,234.481354 
	C215.941696,237.386948 213.805893,239.965714 211.370575,242.397675 
	C210.682205,240.572281 210.293365,238.893677 209.904510,237.215057 
z"/>
<path fill="#456EFD" opacity="1.000000" stroke="none" 
	d="
M193.168793,248.939636 
	C191.118530,250.619293 189.068283,252.298935 186.673309,253.983368 
	C185.867996,253.312408 185.407440,252.636627 184.890686,251.655624 
	C186.638519,248.592773 188.442551,245.835175 190.686371,243.382599 
	C191.807037,245.438293 192.487915,247.188965 193.168793,248.939636 
z"/>
<path fill="#021031" opacity="1.000000" stroke="none" 
	d="
M193.455780,249.096069 
	C192.487915,247.188965 191.807037,245.438293 191.033875,243.344070 
	C191.266861,238.941788 192.503159,235.431717 196.808151,233.385315 
	C198.738800,233.036774 200.443619,232.936508 202.576202,232.819275 
	C205.119034,234.139160 207.234055,235.476044 209.626801,237.013992 
	C210.293365,238.893677 210.682205,240.572281 211.130203,242.624710 
	C209.652924,245.586533 208.116501,248.174530 206.287994,250.950699 
	C203.631302,251.398758 201.266693,251.658646 198.493805,251.934723 
	C196.637939,251.051453 195.190353,250.151978 193.455780,249.096069 
z"/>
</svg>